<svg xmlns="http://www.w3.org/2000/svg" width="810" viewBox="0 0 810 810" height="810" version="1.0"><defs><clipPath id="a"><path d="M 81 672 L 224 672 L 224 772.125 L 81 772.125 Z M 81 672"/></clipPath><clipPath id="b"><path d="M 264 562 L 407 562 L 407 772.125 L 264 772.125 Z M 264 562"/></clipPath><clipPath id="c"><path d="M 446 499 L 589 499 L 589 772.125 L 446 772.125 Z M 446 499"/></clipPath><clipPath id="d"><path d="M 629 429 L 772 429 L 772 772.125 L 629 772.125 Z M 629 429"/></clipPath><clipPath id="e"><path d="M 732 38 L 782.742188 38 L 782.742188 67 L 732 67 Z M 732 38"/></clipPath><clipPath id="f"><path d="M 731 37.875 L 735 37.875 L 735 115 L 731 115 Z M 731 37.875"/></clipPath></defs><path fill="#FDB58E" d="M 172.535156 647.09375 C 172.535156 647.09375 173.019531 656.921875 173.277344 659.414062 C 173.371094 660.316406 174 661.804688 174.097656 662.015625 C 174.832031 663.53125 174.15625 667.277344 174.15625 667.277344 L 165.507812 668.050781 L 163.371094 664.90625 C 163.371094 664.90625 164.203125 662.691406 164.121094 661.539062 C 163.917969 658.816406 162.195312 648.542969 162.195312 648.542969 L 172.535156 647.09375" fill-rule="evenodd"/><path fill="#FDB58E" d="M 54.804688 609.945312 C 54.804688 609.945312 45.152344 610.105469 42.699219 610.292969 C 41.789062 610.363281 40.292969 610.976562 40.082031 611.074219 C 38.550781 611.78125 34.820312 611.039062 34.820312 611.039062 L 34.183594 602.378906 L 37.367188 600.300781 C 37.367188 600.300781 39.566406 601.171875 40.71875 601.097656 C 43.449219 600.921875 53.773438 599.269531 53.773438 599.269531 L 54.804688 609.945312" fill-rule="evenodd"/><path fill="#19344F" d="M 163.832031 662.851562 C 164.378906 663.015625 166.214844 665.9375 169.65625 665.335938 C 172.710938 664.792969 173.300781 661.84375 174.019531 661.707031 C 175.644531 661.402344 178.007812 663.835938 183.15625 666.171875 C 185.769531 667.363281 192.722656 667.636719 192.351562 670.75 C 192.078125 673.140625 168.496094 674.285156 163.523438 673.601562 C 161.21875 673.285156 161.992188 668.703125 162.5 666.679688 C 162.9375 664.957031 162.984375 662.609375 163.832031 662.851562" fill-rule="evenodd"/><path fill="#19344F" d="M 39.40625 600.792969 C 39.242188 601.332031 36.285156 603.128906 36.832031 606.578125 C 37.324219 609.636719 40.265625 610.273438 40.386719 610.992188 C 40.671875 612.621094 38.195312 614.941406 35.769531 620.054688 C 34.535156 622.640625 34.160156 629.59375 31.046875 629.175781 C 28.660156 628.855469 27.90625 605.273438 28.660156 600.308594 C 29.007812 598.011719 33.585938 598.867188 35.601562 599.40625 C 37.324219 599.867188 39.664062 599.953125 39.40625 600.792969" fill-rule="evenodd"/><path fill="#68A971" d="M 124.566406 507.722656 C 124.566406 507.722656 138.742188 503.507812 144.667969 519.210938 C 150.589844 534.921875 167.433594 584.757812 167.433594 584.757812 C 167.433594 584.757812 169.761719 591.753906 170.050781 596.609375 C 170.34375 601.476562 173.285156 653.59375 173.285156 653.59375 L 162.9375 654.722656 C 162.9375 654.722656 154.394531 623.578125 152.652344 613.449219 C 151.558594 607.035156 152.507812 593.945312 152.507812 593.945312 L 113.566406 529.226562 C 113.566406 529.226562 110.050781 512.371094 124.566406 507.722656" fill-rule="evenodd"/><path fill="#68A971" d="M 120.761719 501.292969 C 120.761719 501.292969 136.882812 503.582031 134.003906 521.175781 C 131.246094 538.121094 118.199219 596.214844 118.199219 596.214844 C 118.199219 596.214844 116.023438 608.117188 106.644531 608.558594 C 97.269531 608.992188 47.304688 610.265625 47.304688 610.265625 L 46.238281 600.15625 C 46.238281 600.15625 73.179688 594.1875 82.609375 592.542969 C 89.292969 591.375 102.839844 590.285156 102.839844 590.285156 L 101.324219 520.023438 C 101.324219 520.023438 104.175781 500.179688 120.761719 501.292969" fill-rule="evenodd"/><path fill="#EE4E2A" d="M 112.300781 414.007812 C 113.589844 413.355469 120.285156 408.238281 122.414062 410.769531 C 126.558594 415.683594 127.597656 425.253906 127.113281 428.324219 C 125.734375 437.007812 117.078125 440.382812 110.664062 435.71875 C 106.496094 432.699219 104.796875 420.710938 108.035156 416.941406 C 109.179688 415.609375 110.671875 414.828125 112.300781 414.007812" fill-rule="evenodd"/><path fill="#FDB58E" d="M 117.320312 443.746094 L 107.375 442.730469 C 107.375 442.730469 111.089844 439.660156 111.355469 437.453125 C 111.710938 434.550781 109.511719 425.328125 109.511719 425.328125 L 118.554688 423.882812 C 118.554688 423.882812 119.328125 432.90625 120.382812 435.496094 C 121.785156 438.917969 123.984375 442.246094 123.984375 442.246094 L 117.320312 443.746094" fill-rule="evenodd"/><path fill="#FDB58E" d="M 121.441406 413 C 122.308594 414.699219 123.195312 417.808594 123.382812 420.179688 C 123.574219 422.523438 123.089844 425.640625 122.566406 427.203125 C 121.414062 430.675781 119.617188 434.6875 112.945312 431.683594 C 111.914062 431.222656 108.988281 427.664062 108.457031 426.996094 C 106.28125 424.289062 106.320312 419.992188 106.632812 416.664062 C 106.902344 413.910156 107.070312 411.21875 109.542969 409.648438 C 111.65625 408.3125 115.339844 408.664062 118.152344 409.972656 C 118.867188 410.300781 120.753906 411.664062 121.441406 413" fill-rule="evenodd"/><path fill="#EEEED4" d="M 109.285156 439.417969 C 111.019531 440.015625 113.484375 440.996094 116.667969 440.488281 C 119.585938 440.023438 121.84375 437.902344 121.84375 437.902344 C 121.84375 437.902344 127.695312 440.335938 131.359375 450.078125 C 134.214844 457.65625 136.476562 469.636719 135.511719 488.289062 C 135.15625 495 140.949219 503.789062 142.007812 511.789062 C 142.394531 514.667969 125.824219 517.445312 122.792969 517.695312 C 111.890625 518.605469 100.574219 519.386719 101.035156 517.066406 C 102.566406 509.359375 102.515625 498.625 101.878906 492.203125 C 100.703125 480.507812 93.835938 465.238281 98.867188 451.230469 C 101.765625 443.140625 108.511719 440.433594 109.285156 439.417969" fill-rule="evenodd"/><path fill="#68A971" d="M 121.269531 437.347656 C 121.269531 437.347656 117.554688 440.722656 109.867188 438.855469 C 109.390625 438.742188 108.914062 439.03125 108.800781 439.507812 C 108.683594 439.980469 108.980469 440.457031 109.449219 440.570312 C 118.257812 442.703125 122.480469 438.636719 122.480469 438.636719 C 122.839844 438.304688 122.859375 437.742188 122.527344 437.386719 C 122.1875 437.03125 121.632812 437.015625 121.269531 437.347656" fill-rule="evenodd"/><path fill="#FDB58E" d="M 98.222656 517.597656 L 101.015625 525.824219 L 104.175781 534.769531 L 107.667969 540.683594 L 112.953125 545.523438 C 112.953125 545.523438 113.105469 543.203125 112.664062 542.179688 C 112.195312 541.109375 110.140625 539.109375 110.140625 539.109375 L 109.035156 534.792969 L 108.996094 531.570312 L 111.089844 532.382812 C 111.089844 532.382812 113.453125 535.074219 113.671875 534.792969 C 113.886719 534.519531 112.398438 530.707031 112.398438 530.707031 L 106.402344 524.65625 L 103.902344 515.359375 L 98.222656 517.597656" fill-rule="evenodd"/><path fill="#EEEED4" d="M 110.90625 445.484375 C 110.90625 445.484375 117.441406 449.425781 113.816406 457.304688 C 110.195312 465.183594 98.777344 488.621094 98.777344 488.621094 L 105.84375 520.976562 L 99.703125 523.183594 L 88.164062 493.066406 C 88.164062 493.066406 86.945312 488.613281 88.308594 484.125 C 89.679688 479.636719 99.589844 449.207031 99.589844 449.207031 C 99.589844 449.207031 102.628906 442.222656 110.90625 445.484375" fill-rule="evenodd"/><path fill="#FDB58E" d="M 178.257812 421.636719 L 185.695312 408.183594 L 191.5625 400.84375 L 199.910156 397.363281 C 199.910156 397.363281 199.832031 399.261719 199.195312 399.84375 C 197.929688 400.996094 192.335938 404.257812 192.335938 404.257812 L 190.828125 409.601562 L 193.957031 408.554688 L 195.84375 406.410156 C 195.84375 406.410156 197.496094 405.71875 197.445312 406.257812 C 197.398438 406.84375 195.535156 409.972656 195.535156 409.972656 L 188.417969 415.890625 L 183.230469 424.472656 L 178.257812 421.636719" fill-rule="evenodd"/><path fill="#EEEED4" d="M 186.226562 420.1875 L 172.003906 450.65625 C 172.003906 450.65625 170.398438 454.691406 164.925781 455.804688 C 159.453125 456.917969 128.015625 464.007812 128.015625 464.007812 C 128.015625 464.007812 119.011719 462.234375 119.078125 455.949219 C 119.132812 449.664062 124.382812 447.257812 126.539062 447.03125 C 128.699219 446.796875 162.40625 444.339844 162.40625 444.339844 L 180.652344 416.675781 L 186.226562 420.1875" fill-rule="evenodd"/><path fill="#EE4E2A" d="M 118.636719 406.757812 C 123.976562 405.425781 126.507812 412.574219 123.40625 415.554688 C 122.359375 416.570312 121.140625 417.488281 119.761719 417.9375 C 118.933594 418.210938 117.917969 418.246094 117.289062 418.953125 C 116.199219 420.164062 115.316406 423.859375 113.558594 424.699219 C 112.300781 425.300781 110.800781 424.449219 110.453125 426.019531 C 109.792969 429.03125 114.210938 428.027344 114.453125 431.320312 C 115.257812 442.078125 107.859375 441.996094 104.054688 440.691406 C 96.964844 438.265625 95.570312 429.703125 104.039062 422.484375 C 106.222656 420.621094 101.847656 409.027344 109.527344 406.675781 C 111.445312 406.085938 116.191406 407.359375 118.636719 406.757812" fill-rule="evenodd"/><path fill="#FDB58E" d="M 279.617188 533.527344 C 279.617188 533.527344 280.625 544.710938 280.777344 547.503906 C 280.816406 548.449219 280.585938 550.050781 280.488281 550.300781 C 279.785156 552.144531 280.679688 556.472656 280.679688 556.472656 L 290.722656 556.601562 L 292.890625 552.71875 C 292.890625 552.71875 292.054688 550.101562 291.933594 548.738281 C 291.648438 545.410156 291.191406 532.738281 291.191406 532.738281 L 279.617188 533.527344" fill-rule="evenodd"/><path fill="#FDB58E" d="M 376.964844 524.261719 C 376.964844 524.261719 384.386719 532.691406 386.160156 534.863281 C 386.757812 535.589844 387.515625 537.023438 387.585938 537.28125 C 388.109375 539.191406 391.390625 542.148438 391.390625 542.148438 L 399.5625 536.324219 L 399.015625 531.90625 C 399.015625 531.90625 396.789062 530.289062 395.894531 529.257812 C 393.695312 526.742188 385.835938 516.792969 385.835938 516.792969 L 376.964844 524.261719" fill-rule="evenodd"/><path fill="#19344F" d="M 292.171875 550.359375 C 291.5625 550.589844 289.707031 554.183594 285.6875 553.789062 C 282.125 553.433594 281.171875 550.027344 280.335938 549.929688 C 278.433594 549.722656 275.933594 552.78125 270.21875 555.996094 C 267.320312 557.625 259.332031 558.574219 260.042969 562.191406 C 260.589844 564.964844 287.855469 564.175781 293.519531 562.933594 C 296.140625 562.355469 294.824219 557.054688 294.050781 554.722656 C 293.398438 552.734375 293.125 549.996094 292.171875 550.359375" fill-rule="evenodd"/><path fill="#19344F" d="M 397.039062 530.425781 C 396.683594 530.972656 397.3125 534.96875 393.839844 537.023438 C 390.753906 538.84375 387.972656 536.660156 387.238281 537.074219 C 385.578125 538.023438 385.378906 541.980469 382.664062 547.949219 C 381.292969 550.96875 375.410156 556.449219 378.117188 558.953125 C 380.195312 560.871094 401.722656 544.128906 405.558594 539.769531 C 407.339844 537.757812 403.140625 534.261719 401.140625 532.835938 C 399.433594 531.625 397.597656 529.570312 397.039062 530.425781" fill-rule="evenodd"/><path fill="#19344F" d="M 316.277344 380.917969 C 316.277344 380.917969 335.910156 388.5625 327.554688 406.144531 C 319.203125 423.722656 291.09375 473.601562 291.09375 473.601562 L 291.898438 539.707031 L 279.601562 540.578125 L 270.042969 480.75 C 270.042969 480.75 268.140625 473.996094 271.511719 464.28125 C 274.878906 454.5625 295.816406 391.101562 295.816406 391.101562 C 295.816406 391.101562 300.457031 378.953125 316.277344 380.917969" fill-rule="evenodd"/><path fill="#19344F" d="M 324.765625 380.082031 C 324.765625 380.082031 340.859375 380.660156 342.882812 397.070312 C 344.898438 413.484375 350.691406 471.363281 350.691406 471.363281 L 391.09375 522.417969 L 381.648438 530.644531 L 335.332031 488.320312 C 335.332031 488.320312 331.117188 482.625 329.117188 476.808594 C 327.125 470.992188 306.847656 399.722656 306.847656 399.722656 C 306.847656 399.722656 304.738281 382.03125 324.765625 380.082031" fill-rule="evenodd"/><path fill="#FDB58E" d="M 231.449219 392.164062 L 220.34375 396.523438 L 207.359375 403.71875 L 200.089844 405.402344 L 192.539062 404.6875 C 192.539062 404.6875 193.433594 403.226562 194.183594 402.984375 C 195.777344 402.46875 202.113281 401.59375 202.113281 401.59375 L 209.503906 397.015625 L 205.320312 394.726562 L 200.78125 395.484375 C 200.78125 395.484375 197.777344 395.179688 198.257812 394.621094 C 198.734375 394.066406 203.667969 392.132812 203.667969 392.132812 L 216.503906 389.78125 L 226.726562 385.164062 L 231.449219 392.164062" fill-rule="evenodd"/><path fill="#FDB58E" d="M 373.871094 328.324219 L 383.894531 323.128906 L 398.863281 317.84375 L 413.859375 316.851562 C 413.859375 316.851562 412.175781 319.710938 410.722656 320.1875 C 408.324219 320.984375 399.449219 321.636719 399.449219 321.636719 L 395.808594 325.546875 L 398.796875 326.996094 C 398.796875 326.996094 404.582031 326.671875 405.125 326.875 C 405.742188 327.101562 402.792969 328.992188 402.792969 328.992188 L 398.242188 329.945312 L 388.777344 329.621094 L 376.941406 335.535156 L 373.871094 328.324219" fill-rule="evenodd"/><path fill="#FDB58E" d="M 289.765625 313.023438 L 300.328125 308.046875 C 300.328125 308.046875 299.941406 307.53125 298.886719 306.847656 C 297.515625 305.960938 295.203125 304.695312 293.164062 302.980469 C 290.183594 300.464844 286.324219 289.546875 286.324219 289.546875 L 276.273438 293.648438 C 276.273438 293.648438 279.640625 302.101562 278.964844 307.539062 C 278.570312 310.664062 277.765625 312.242188 277.765625 312.242188 L 289.765625 313.023438" fill-rule="evenodd"/><path fill="#FDB58E" d="M 267.753906 282.523438 C 267.59375 284.785156 268.085938 288.589844 268.980469 291.265625 C 269.875 293.90625 271.847656 297.082031 273.144531 298.546875 C 276.023438 301.800781 279.859375 305.332031 285.734375 298.941406 C 286.644531 297.960938 288.175781 292.714844 288.449219 291.738281 C 289.5625 287.769531 287.507812 283.101562 285.613281 279.621094 C 284.042969 276.738281 282.597656 273.886719 279.167969 273.320312 C 276.242188 272.847656 272.386719 274.949219 269.929688 277.6875 C 269.300781 278.382812 267.882812 280.742188 267.753906 282.523438" fill-rule="evenodd"/><path fill="#19344F" d="M 265.289062 270.421875 C 258.914062 269.027344 258.140625 283 266.554688 286.445312 C 268.15625 287.105469 269.664062 287.042969 271.734375 286.90625 C 272.757812 286.832031 274.039062 286.609375 275.054688 287.082031 C 276.8125 287.898438 277.59375 290.660156 279.898438 290.75 C 281.550781 290.820312 283.363281 289.082031 285.097656 289.886719 C 289.128906 291.765625 285.410156 295.503906 288.417969 298.023438 C 291.527344 300.625 290.054688 291.539062 290.523438 287.90625 C 291.503906 280.1875 290.5625 271.414062 283.742188 270.792969 C 280.351562 270.476562 278.160156 273.234375 265.289062 270.421875" fill-rule="evenodd"/><path fill="#EE4E2A" d="M 286.066406 318.050781 C 286.066406 318.050781 295.503906 321.953125 290.632812 333.441406 C 285.773438 344.929688 271.066406 373.273438 271.066406 373.273438 C 271.066406 373.273438 269.148438 378.921875 264.53125 380.726562 C 259.914062 382.523438 225.773438 394.890625 225.773438 394.890625 L 221.605469 387 L 257.1875 368.285156 L 272.71875 322.765625 C 272.71875 322.765625 276.257812 315.097656 286.066406 318.050781" fill-rule="evenodd"/><path fill="#EE4E2A" d="M 295.9375 309.511719 C 295.9375 309.511719 303.191406 303.460938 309.203125 307.828125 C 315.214844 312.1875 343.867188 339.976562 343.867188 339.976562 L 376.28125 326.464844 L 380.210938 334.585938 L 346.902344 354.203125 C 346.902344 354.203125 341.320312 356.433594 336.210938 353.1875 C 331.097656 349.933594 296.597656 323.675781 296.597656 323.675781 C 296.597656 323.675781 291.238281 317.914062 295.9375 309.511719" fill-rule="evenodd"/><path fill="#EE4E2A" d="M 277.910156 310.222656 C 277.910156 310.222656 283.898438 310.328125 287.320312 308.988281 C 291.8125 307.242188 295.140625 304.019531 295.140625 304.019531 C 295.140625 304.019531 303.546875 304.726562 306.550781 305.855469 C 312.972656 308.265625 319.238281 314.773438 323.097656 324.667969 C 327.328125 335.535156 327.03125 351.261719 331.625 362.773438 C 334.300781 369.453125 346.75 386.742188 344.066406 393.632812 C 341.382812 400.535156 320.1875 403.695312 315.519531 404.144531 C 308.792969 404.789062 289.273438 408.34375 288.691406 400.285156 C 287.492188 383.449219 288.417969 373.972656 285.371094 366.167969 C 281.527344 356.296875 270.453125 332.902344 272.800781 322.316406 C 273.902344 317.359375 277.910156 310.222656 277.910156 310.222656" fill-rule="evenodd"/><path fill="#19344F" d="M 277.933594 311.21875 C 277.933594 311.21875 289.394531 312.992188 295.953125 304.792969 C 296.285156 304.371094 296.210938 303.769531 295.800781 303.4375 C 295.382812 303.109375 294.777344 303.171875 294.445312 303.589844 C 288.554688 310.960938 278.230469 309.320312 278.230469 309.320312 C 277.707031 309.238281 277.214844 309.59375 277.128906 310.117188 C 277.046875 310.648438 277.410156 311.140625 277.933594 311.21875" fill-rule="evenodd"/><path fill="#FDB58E" d="M 454.855469 468.375 C 454.855469 468.375 454.316406 480.464844 454.171875 483.429688 C 454.132812 484.339844 454.132812 485.886719 454.027344 486.15625 C 453.246094 488.113281 454.140625 492.730469 454.140625 492.730469 L 464.832031 493.003906 L 467.195312 488.902344 C 467.195312 488.902344 466.261719 486.105469 466.234375 484.648438 C 466.164062 481.457031 466.785156 469.742188 466.785156 469.742188 L 454.855469 468.375" fill-rule="evenodd"/><path fill="#FDB58E" d="M 559.304688 461.5 C 559.304688 461.5 566.460938 471.265625 568.210938 473.667969 C 568.75 474.398438 569.714844 475.609375 569.796875 475.882812 C 570.425781 477.894531 574.011719 480.933594 574.011719 480.933594 L 582.515625 474.449219 L 581.78125 469.773438 C 581.78125 469.773438 579.308594 468.179688 578.371094 467.058594 C 576.316406 464.609375 569.457031 455.097656 569.457031 455.097656 L 559.304688 461.5" fill-rule="evenodd"/><path fill="#19344F" d="M 466.460938 486.371094 C 465.808594 486.613281 463.785156 490.417969 459.515625 489.941406 C 455.71875 489.515625 454.75 485.871094 453.867188 485.757812 C 451.84375 485.5 449.132812 488.742188 443 492.074219 C 439.898438 493.769531 431.371094 494.671875 432.082031 498.53125 C 432.621094 501.496094 461.667969 501.035156 467.726562 499.785156 C 470.523438 499.214844 469.195312 493.542969 468.402344 491.054688 C 467.734375 488.925781 467.484375 486 466.460938 486.371094" fill-rule="evenodd"/><path fill="#19344F" d="M 579.628906 468.261719 C 579.273438 468.855469 580.082031 473.085938 576.445312 475.390625 C 573.230469 477.4375 570.191406 475.207031 569.425781 475.671875 C 567.695312 476.746094 567.613281 480.957031 564.921875 487.402344 C 563.558594 490.667969 557.484375 496.707031 560.457031 499.277344 C 562.738281 501.246094 585.085938 482.691406 589.019531 477.921875 C 590.847656 475.722656 586.253906 472.136719 584.078125 470.6875 C 582.222656 469.453125 580.191406 467.335938 579.628906 468.261719" fill-rule="evenodd"/><path fill="#EE4E2A" d="M 502.421875 305.25 C 502.421875 305.25 518.234375 313.652344 512.390625 328.398438 C 506.554688 343.140625 473.03125 401.945312 473.03125 401.945312 C 473.03125 401.945312 474.90625 415.539062 474.335938 422.320312 C 473.296875 434.730469 466.777344 476.390625 466.777344 476.390625 L 454.210938 476.164062 L 453.867188 408.683594 C 453.867188 408.683594 454.355469 399.214844 456.300781 393.238281 C 458.25 387.257812 477.558594 313.863281 477.558594 313.863281 C 477.558594 313.863281 484.78125 298.425781 502.421875 305.25" fill-rule="evenodd"/><path fill="#EE4E2A" d="M 510.273438 302.875 C 510.273438 302.875 523.859375 303.496094 526.71875 319.179688 C 529.316406 333.382812 533.402344 400.914062 533.402344 400.914062 C 533.402344 400.914062 543.589844 410.109375 547.417969 415.722656 C 554.242188 425.753906 574.367188 461.105469 574.367188 461.105469 L 563.6875 468.355469 L 521.902344 417.761719 C 521.902344 417.761719 516.960938 409.617188 514.808594 403.347656 C 512.65625 397.082031 485.753906 313.558594 485.753906 313.558594 C 485.753906 313.558594 488.996094 302.40625 510.273438 302.875" fill-rule="evenodd"/><path fill="#FDB58E" d="M 438.949219 304.414062 L 431.597656 309.472656 L 421.839844 317.738281 L 414.90625 321.910156 L 405.105469 323.492188 C 405.105469 323.492188 405.226562 321.652344 405.90625 321.257812 C 407.203125 320.511719 412.859375 318.996094 412.859375 318.996094 L 419.582031 314.726562 L 419.652344 311.6875 L 417.542969 311.050781 L 414.433594 312.378906 C 414.433594 312.378906 411.101562 312.945312 411.28125 312.316406 C 411.464844 311.679688 415.535156 308.585938 415.535156 308.585938 L 424.167969 305.917969 L 427.375 303.640625 L 435.09375 298.378906 L 438.949219 304.414062" fill-rule="evenodd"/><path fill="#FDB58E" d="M 566.007812 241.363281 L 574.519531 236.988281 L 585.859375 232.183594 L 592.289062 230.765625 C 592.289062 230.765625 601.1875 231.984375 601.382812 232.78125 C 601.65625 233.941406 595.289062 233.78125 595.289062 233.78125 L 592.539062 234.539062 L 587.945312 235.761719 L 586.246094 239.316406 L 589.757812 239.734375 C 589.757812 239.734375 592.773438 239.28125 592.773438 239.644531 C 592.773438 240.015625 589.757812 241.941406 589.757812 241.941406 L 586.042969 242.457031 L 580.097656 242.109375 L 569.765625 247.507812 L 566.007812 241.363281" fill-rule="evenodd"/><path fill="#19344F" d="M 494.726562 187.824219 C 497.554688 188.679688 501.867188 193.398438 502.339844 197.46875 C 502.914062 202.375 504.066406 211.035156 498.167969 217.304688 C 495.394531 220.253906 486.519531 220.761719 486.519531 220.761719 L 485.351562 192.351562 C 485.351562 192.351562 491.898438 186.972656 494.726562 187.824219" fill-rule="evenodd"/><path fill="#FDB58E" d="M 490.109375 232.105469 L 475.019531 232.449219 C 475.019531 232.449219 480.574219 227.519531 481.902344 223.136719 C 482.941406 219.730469 485.894531 204.484375 485.894531 204.484375 L 493.066406 203.566406 C 493.066406 203.566406 494.839844 214.695312 497 219.277344 C 499.117188 223.789062 506.023438 231.074219 506.023438 231.074219 L 490.109375 232.105469" fill-rule="evenodd"/><path fill="#FDB58E" d="M 495.75 189.75 C 498.464844 191.175781 499.261719 195.945312 499.875 199.105469 C 500.488281 202.238281 500.003906 206.515625 499.449219 208.691406 C 498.214844 213.5 496.167969 219.09375 486.84375 215.667969 C 485.410156 215.144531 481.105469 210.601562 480.324219 209.761719 C 477.117188 206.300781 479.019531 202.230469 479.132812 197.6875 C 479.21875 193.941406 480.394531 192.933594 483.597656 190.5625 C 486.328125 188.550781 493.042969 188.324219 495.75 189.75" fill-rule="evenodd"/><path fill="#F0B732" d="M 488.292969 229.097656 C 488.292969 229.097656 495.597656 232.933594 492.371094 241.628906 C 489.148438 250.320312 479.105469 272.347656 474.691406 280.21875 C 473.230469 282.820312 471.078125 285.90625 466.339844 289.105469 C 461.160156 292.617188 432.734375 309.277344 432.734375 309.277344 L 428.011719 302.40625 L 460.757812 276.503906 L 473.199219 235.511719 C 473.199219 235.511719 479.597656 224.902344 488.292969 229.097656" fill-rule="evenodd"/><path fill="#F0B732" d="M 494.03125 230.863281 C 494.03125 230.863281 490.574219 238.089844 497.230469 243.777344 C 503.890625 249.472656 527.519531 269.15625 527.519531 269.15625 C 527.519531 269.15625 532.886719 272.378906 538.382812 268.457031 C 543.660156 264.675781 574.199219 245.582031 574.199219 245.582031 L 570.546875 238.671875 L 534.191406 255.863281 C 534.191406 255.863281 515.261719 231.460938 508.5625 227.292969 C 504.332031 224.660156 498.238281 224.5 494.03125 230.863281" fill-rule="evenodd"/><path fill="#F0B732" d="M 482.195312 224.265625 C 482.195312 224.265625 484.699219 225.804688 489.171875 225.699219 C 492.558594 225.617188 498.78125 222.4375 498.78125 222.4375 C 498.78125 222.4375 509.84375 227.34375 512.625 231.039062 C 525.40625 248.089844 515.863281 269.132812 518.683594 288.863281 C 519.023438 291.25 523.101562 300.085938 526.339844 307.964844 C 529.113281 314.699219 506.234375 317.714844 500.164062 317.714844 C 495.871094 317.714844 472.488281 317.988281 473.382812 313.28125 C 474.3125 308.433594 475.496094 303.453125 475.578125 302.808594 C 476.882812 292.640625 473.28125 266.351562 472.609375 260.785156 C 471.585938 252.269531 469.394531 245.429688 472.722656 236.824219 C 475.335938 230.089844 482.195312 224.265625 482.195312 224.265625" fill-rule="evenodd"/><path fill="#EE4E2A" d="M 481.96875 225.507812 C 481.96875 225.507812 492.203125 228.730469 499.898438 223.417969 C 500.359375 223.105469 500.480469 222.460938 500.15625 221.992188 C 499.835938 221.535156 499.199219 221.414062 498.730469 221.734375 C 491.808594 226.511719 482.589844 223.546875 482.589844 223.546875 C 482.046875 223.378906 481.46875 223.675781 481.300781 224.21875 C 481.128906 224.757812 481.429688 225.328125 481.96875 225.507812" fill-rule="evenodd"/><path fill="#19344F" d="M 477.238281 196.445312 C 477.125 193.296875 479.492188 187.550781 487.238281 186.601562 C 494.128906 185.753906 498.09375 186.414062 499.359375 191.84375 C 500.109375 195.042969 488.542969 195.839844 486.109375 198.484375 C 484.03125 200.730469 483.675781 204.21875 484.757812 207.667969 C 486.222656 212.332031 490.882812 216.878906 488.292969 227.730469 C 484.675781 242.941406 451.769531 231.476562 469.523438 220.027344 C 472.320312 218.230469 474.84375 214.628906 475.988281 211.117188 C 477.269531 207.191406 477.292969 198 477.238281 196.445312" fill-rule="evenodd"/><g clip-path="url(#a)"><path fill="#19344F" d="M 223.566406 672.269531 L 81.433594 672.269531 L 81.433594 772.101562 L 223.566406 772.101562 L 223.566406 672.269531" fill-rule="evenodd"/></g><g clip-path="url(#b)"><path fill="#19344F" d="M 406.195312 562.46875 L 264.0625 562.46875 L 264.0625 772.101562 L 406.195312 772.101562 L 406.195312 562.46875" fill-rule="evenodd"/></g><g clip-path="url(#c)"><path fill="#19344F" d="M 588.824219 499.132812 L 446.691406 499.132812 L 446.691406 772.101562 L 588.824219 772.101562 L 588.824219 499.132812" fill-rule="evenodd"/></g><g clip-path="url(#d)"><path fill="#19344F" d="M 771.453125 429.050781 L 629.320312 429.050781 L 629.320312 772.101562 L 771.453125 772.101562 L 771.453125 429.050781" fill-rule="evenodd"/></g><path fill="#FDB58E" d="M 718.410156 399.335938 C 718.410156 399.335938 720.269531 409.566406 720.632812 412.484375 C 720.808594 413.925781 720.679688 416.585938 720.585938 416.851562 C 719.882812 418.746094 720.875 423.160156 720.875 423.160156 L 731.09375 423.207031 L 733.269531 419.21875 C 733.269531 419.21875 732.054688 416.117188 731.796875 414.472656 C 731.277344 411.242188 730.199219 399.8125 730.199219 399.8125 L 718.410156 399.335938" fill-rule="evenodd"/><path fill="#FDB58E" d="M 671.117188 389.304688 C 671.117188 389.304688 675.316406 400.828125 676.394531 404.21875 C 676.960938 405.984375 677.53125 409.359375 677.597656 409.632812 C 678.046875 411.597656 681.304688 414.742188 681.304688 414.742188 L 689.863281 409.148438 L 689.21875 404.667969 C 689.21875 404.667969 686.460938 401.609375 685.746094 399.730469 C 684.527344 396.539062 681.925781 385.542969 681.925781 385.542969 L 671.117188 389.304688" fill-rule="evenodd"/><path fill="#19344F" d="M 732.527344 416.804688 C 731.90625 417.042969 730.046875 420.742188 725.953125 420.363281 C 722.316406 420.035156 721.324219 416.554688 720.480469 416.464844 C 718.539062 416.253906 716.023438 419.421875 710.21875 422.757812 C 707.285156 424.449219 699.164062 425.480469 699.90625 429.179688 C 700.484375 432.023438 728.226562 431 733.988281 429.675781 C 736.65625 429.066406 735.277344 423.636719 734.46875 421.257812 C 733.785156 419.226562 733.496094 416.425781 732.527344 416.804688" fill-rule="evenodd"/><path fill="#19344F" d="M 687.535156 403.011719 C 687.15625 403.558594 687.628906 407.667969 684.003906 409.609375 C 680.789062 411.332031 678.046875 408.972656 677.289062 409.367188 C 675.558594 410.261719 675.195312 414.296875 672.1875 420.273438 C 670.664062 423.304688 664.453125 428.644531 667.113281 431.320312 C 669.152344 433.375 691.75 417.230469 695.835938 412.953125 C 697.71875 410.96875 693.585938 407.199219 691.613281 405.652344 C 689.925781 404.339844 688.128906 402.15625 687.535156 403.011719" fill-rule="evenodd"/><path fill="#68A971" d="M 714.460938 257.410156 C 714.460938 257.410156 728 258.25 728.386719 272.847656 C 728.78125 287.4375 728.226562 344.832031 728.226562 344.832031 L 731.253906 407.996094 L 719.859375 409.058594 L 708.550781 346.4375 L 696.003906 273.160156 C 696.003906 273.160156 694.859375 258.667969 714.460938 257.410156" fill-rule="evenodd"/><path fill="#68A971" d="M 695.398438 253.671875 C 695.398438 253.671875 707.914062 261.753906 703.03125 273.0625 C 698.148438 284.375 672.777344 337.128906 672.777344 337.128906 L 684.835938 396.226562 L 674.582031 399.964844 L 653.015625 343.785156 C 653.015625 343.785156 650.648438 338.824219 653.832031 329.929688 C 655.988281 323.886719 673.480469 259.519531 673.480469 259.519531 C 673.480469 259.519531 681.496094 246.832031 695.398438 253.671875" fill-rule="evenodd"/><path fill="#EE4E2A" d="M 702.796875 145.816406 C 700.652344 146.519531 699.269531 152.382812 698.96875 155.921875 C 698.671875 159.464844 699.511719 164.414062 701 167.070312 C 702.378906 169.527344 707.90625 171.90625 707.90625 171.90625 L 711.824219 151.699219 C 711.824219 151.699219 704.933594 145.109375 702.796875 145.816406" fill-rule="evenodd"/><path fill="#FDB58E" d="M 708.488281 185.578125 L 723.148438 184.746094 C 723.148438 184.746094 716.5 181.507812 715.289062 177.8125 C 714.347656 174.925781 715.476562 163.582031 715.476562 163.582031 L 704.957031 162.890625 C 704.957031 162.890625 703.078125 172.574219 701.152344 175.667969 C 699.429688 178.429688 693.394531 181.429688 693.394531 181.429688 L 708.488281 185.578125" fill-rule="evenodd"/><path fill="#FDB58E" d="M 702.265625 149.546875 C 701.160156 151.457031 699.96875 154.984375 699.613281 157.703125 C 699.269531 160.390625 699.640625 164.007812 700.148438 165.847656 C 701.273438 169.914062 703.121094 174.628906 710.96875 171.550781 C 712.179688 171.082031 715.75 167.144531 716.394531 166.410156 C 719.0625 163.414062 719.253906 158.464844 719.078125 154.609375 C 718.933594 151.425781 718.539062 150.289062 715.773438 148.332031 C 713.429688 146.664062 709.527344 144.898438 706.222656 146.238281 C 705.375 146.582031 703.128906 148.042969 702.265625 149.546875" fill-rule="evenodd"/><path fill="#EE4E2A" d="M 708.882812 143.160156 C 700.636719 138.332031 694.90625 147.824219 697.996094 151.980469 C 699.003906 153.335938 701.378906 156.742188 713.144531 155.550781 C 715 155.363281 714.742188 158.605469 714.21875 162.316406 C 714.097656 163.164062 716.859375 162.351562 716.660156 163.890625 C 716.449219 165.546875 714.507812 168.109375 715.210938 168.085938 C 716.917969 168.003906 718.8125 163.40625 719.640625 160.890625 C 721.351562 155.703125 723.511719 151.394531 719.175781 147.058594 C 716.828125 144.722656 713.105469 145.632812 708.882812 143.160156" fill-rule="evenodd"/><g clip-path="url(#e)"><path fill="#EE4E2A" d="M 782.269531 52.394531 L 732.519531 66.402344 L 732.519531 38.382812 L 782.269531 52.394531" fill-rule="evenodd"/></g><g clip-path="url(#f)"><path fill="#19344F" d="M 734.195312 37.898438 L 731.328125 37.898438 L 731.328125 114.824219 L 734.195312 114.824219 L 734.195312 37.898438" fill-rule="evenodd"/></g><path fill="#FDB58E" d="M 746.480469 124.917969 L 743.3125 114.792969 L 738.597656 100.796875 C 738.597656 100.796875 732.777344 95.285156 731.054688 95.351562 C 729.320312 95.414062 728.234375 101.183594 728.234375 101.183594 C 728.234375 101.183594 726.160156 104.222656 726.683594 105.734375 C 727.242188 107.300781 731.527344 110.578125 731.527344 110.578125 L 736.695312 116.742188 L 739.265625 126 L 746.480469 124.917969" fill-rule="evenodd"/><path fill="#FDB58E" d="M 625.898438 236.574219 L 616.394531 237.445312 L 599.1875 239.757812 C 599.1875 239.757812 590.550781 236.285156 589.597656 235.40625 C 588.648438 234.519531 593.476562 234.464844 593.476562 234.464844 L 599.503906 235.585938 L 605.03125 233.523438 L 604.203125 231.316406 L 600.945312 230.050781 C 600.945312 230.050781 596.132812 229.75 595.949219 229.382812 C 595.765625 229.011719 599.824219 227.828125 599.824219 227.828125 L 604.683594 227.835938 L 615.234375 231.039062 L 625.132812 229.089844 L 625.898438 236.574219" fill-rule="evenodd"/><path fill="#19344F" d="M 744.722656 118.320312 L 756.078125 152.191406 C 756.078125 152.191406 758.261719 157.515625 755.632812 164.421875 C 753.28125 170.582031 745.117188 193.828125 740.441406 201.417969 C 737.734375 205.808594 732.117188 212.230469 727.5625 209.957031 C 723.019531 207.691406 720.679688 199.972656 723.871094 193.238281 C 727.0625 186.503906 743.980469 157.175781 743.980469 157.175781 L 737.644531 120.980469 L 744.722656 118.320312" fill-rule="evenodd"/><path fill="#19344F" d="M 618.554688 230.242188 L 655.09375 221.671875 L 676.257812 190.257812 C 676.257812 190.257812 679.175781 185.496094 682.820312 182.636719 C 685.535156 180.492188 689.152344 180.324219 690.71875 180.492188 C 693.609375 180.808594 698.535156 182.066406 699.347656 185.488281 C 699.855469 187.609375 697.460938 191.464844 695.769531 194.921875 C 692.457031 201.699219 666.347656 229.664062 666.347656 229.664062 C 666.347656 229.664062 662.226562 234.070312 659.191406 234.335938 C 656.144531 234.601562 619.3125 237.285156 619.3125 237.285156 L 618.554688 230.242188" fill-rule="evenodd"/><path fill="#19344F" d="M 698.011719 178.421875 C 698.011719 178.421875 702.183594 181.113281 707.648438 181.234375 C 710.671875 181.292969 716.894531 180.050781 716.894531 180.050781 C 716.894531 180.050781 722.292969 181.808594 724.019531 182.773438 C 729.039062 185.578125 733.480469 187.367188 734.375 190.933594 C 735.496094 195.421875 736.90625 197.171875 736.550781 201.722656 C 735.984375 208.796875 732.957031 218.675781 731.835938 225.496094 C 729.941406 236.96875 729.972656 242.472656 729.699219 254.695312 C 729.660156 256.257812 730.402344 264.324219 729.949219 265.804688 C 727.28125 274.601562 674.527344 266.707031 670.699219 262.105469 C 668.738281 259.746094 670.207031 255.324219 671.054688 252.550781 C 672.972656 246.324219 674.832031 236.875 676.082031 230.492188 C 678.074219 220.367188 677.242188 211.65625 677.4375 204.855469 C 677.597656 199.554688 678.613281 192.167969 679.507812 187.671875 C 679.773438 186.359375 681.675781 184.117188 682.539062 182.957031 C 684.671875 180.113281 698.011719 178.421875 698.011719 178.421875" fill-rule="evenodd"/><path fill="#68A971" d="M 697.292969 179.382812 C 697.292969 179.382812 706.296875 184.546875 716.910156 180.921875 C 717.394531 180.75 717.652344 180.226562 717.488281 179.746094 C 717.320312 179.261719 716.796875 179.003906 716.304688 179.164062 C 706.519531 182.507812 698.21875 177.769531 698.21875 177.769531 C 697.769531 177.519531 697.203125 177.671875 696.945312 178.117188 C 696.695312 178.558594 696.851562 179.132812 697.292969 179.382812" fill-rule="evenodd"/></svg>